<?xml version="1.0" encoding="UTF-8" standalone="no"?>
<!-- Svg Vector Icons : http://www.onlinewebfonts.com/icon -->

<svg
   version="1.1"
   x="0px"
   y="0px"
   viewBox="0 0 1000 1000"
   enable-background="new 0 0 1000 1000"
   xml:space="preserve"
   id="svg10"
   sodipodi:docname="favicon.svg"
   inkscape:version="1.1 (c68e22c387, 2021-05-23)"
   inkscape:export-filename="C:\Users\Brad\Projects\souvenir\client\public\favicon.png"
   inkscape:export-xdpi="6.1399999"
   inkscape:export-ydpi="6.1399999"
   xmlns:inkscape="http://www.inkscape.org/namespaces/inkscape"
   xmlns:sodipodi="http://sodipodi.sourceforge.net/DTD/sodipodi-0.dtd"
   xmlns="http://www.w3.org/2000/svg"
   xmlns:svg="http://www.w3.org/2000/svg"><defs
   id="defs14" /><sodipodi:namedview
   id="namedview12"
   pagecolor="#ffffff"
   bordercolor="#666666"
   borderopacity="1.0"
   inkscape:pageshadow="2"
   inkscape:pageopacity="0.0"
   inkscape:pagecheckerboard="0"
   showgrid="false"
   inkscape:zoom="0.32523148"
   inkscape:cx="281.33808"
   inkscape:cy="599.57296"
   inkscape:window-width="1280"
   inkscape:window-height="738"
   inkscape:window-x="-6"
   inkscape:window-y="-6"
   inkscape:window-maximized="1"
   inkscape:current-layer="svg10" />
<metadata
   id="metadata2"> Svg Vector Icons : http://www.onlinewebfonts.com/icon </metadata>
<g
   id="g14"><ellipse
     style="fill:#35495e;fill-opacity:1;stroke-width:4.0252;-inkscape-stroke:none;stop-color:#000000"
     id="path7618"
     cx="500"
     cy="500"
     rx="449.88553"
     ry="459.96445" /><g
     id="g8"
     style="fill:#46c58c;fill-opacity:1"
     transform="translate(-0.00337357,-0.00392897)"><g
       transform="matrix(0.1,0,0,-0.1,0,512)"
       id="g6"
       style="fill:#46c58c;fill-opacity:1"><path
         d="M 4643.1,5016.9 C 3935.8,4947.9 3374.2,4792.7 2806.9,4509 2323.9,4265.6 1942.5,3987.7 1536.1,3583.2 1108.7,3153.9 828.8,2762.8 577.7,2239.6 363.1,1792.9 227,1357.8 144.6,849.9 85.1,476.2 85.1,-233 144.6,-606.8 c 86.3,-529 222.4,-954.5 454.3,-1428 251.1,-511.8 515.6,-881.7 929.6,-1295.7 402.5,-404.4 745.6,-657.5 1217.1,-900.9 1405,-724.5 3038,-736 4444.9,-32.6 795.4,398.7 1523.8,1067.6 1991.5,1828.5 774.3,1265 933.5,2850.2 423.6,4241.7 -84.3,230 -320.1,713 -440.8,902.8 -391,615.3 -964.1,1188.4 -1579.4,1579.4 -189.8,120.8 -672.8,356.5 -902.8,440.8 -258.8,93.9 -653.6,195.5 -946.9,241.5 -237.7,38.5 -897.1,65.3 -1092.6,46.2 z m 561.6,-504.1 C 5191.3,4470.6 2975.6,641 2966,639.1 c -9.6,0 -1318.7,2256 -1337.9,2303.9 -11.5,28.8 266.4,322 484.9,507.9 682.4,588.4 1544.9,966 2415.1,1058 216.6,23 684.3,25 676.6,3.9 z m 803.1,-97.8 c 446.6,-105.4 1000.5,-341.2 1385.8,-594.2 594.2,-389.1 1115.5,-943 1445.2,-1537.2 l 72.8,-130.3 H 6665.3 c -1234.4,0 -2240.6,5.8 -2236.8,15.3 21.1,36.4 1178.8,2041.3 1244,2156.3 86.2,149.5 82.3,147.6 335.3,90.1 z M 2431.2,558.6 c 615.3,-1065.7 1123.2,-1945.5 1125.1,-1955 3.8,-7.7 -601.8,-15.3 -1345.5,-15.3 H 859.5 l -67.1,208.9 C 458.9,-175.5 541.3,1024.3 1009,1992.3 c 126.5,262.6 264.5,506 285.6,506 9.6,0 519.4,-872.1 1136.6,-1939.7 z M 9203,1444.1 c 134.2,-423.6 203.2,-870.2 203.2,-1322.5 0,-697.7 -155.3,-1343.6 -473.4,-1978.1 -90.1,-176.3 -172.5,-327.8 -185.9,-339.3 -17.2,-15.3 -279.8,423.6 -1104,1853.5 C 7048.6,687 6544.5,1559.1 6525.3,1593.6 l -36.4,61.3 h 1324.5 1322.5 z m -1445.2,-2980.5 651.7,-1127 -51.8,-69 c -86.3,-111.2 -425.5,-442.8 -590.3,-575 -776.3,-624.9 -1851.5,-1004.4 -2754.3,-975.6 l -187.8,5.7 1125,1949.3 c 619.1,1073.4 1132.8,1943.5 1142.4,1934 7.7,-7.7 308.6,-521.4 665.1,-1142.4 z m -2146.7,-381.4 c 0,-9.6 -1318.7,-2294.3 -1330.2,-2305.8 -17.3,-17.2 -429.4,82.4 -668.9,161 -304.8,99.7 -743.7,310.5 -1010.1,484.9 -594.2,389.1 -1115.5,943 -1445.2,1539.1 l -72.8,128.4 h 2263.7 c 1245.7,0 2263.5,-3.8 2263.5,-7.6 z"
         id="path4"
         style="fill:#46c58c;fill-opacity:1" /></g></g></g>
</svg>
