<?xml version="1.0" encoding="UTF-8" standalone="no"?>
<!-- Created with Inkscape (http://www.inkscape.org/) -->

<svg
   width="33.866665mm"
   height="33.866665mm"
   viewBox="0 0 33.866665 33.866665"
   version="1.1"
   id="svg949"
   xmlns="http://www.w3.org/2000/svg"
   xmlns:svg="http://www.w3.org/2000/svg">
  <defs
     id="defs946" />
  <g
     id="layer1"
     transform="translate(-8.0330986,-8.4317667)">
    <g
       id="g81232"
       transform="matrix(0.38767622,0,0,0.38767622,33.649036,30.690662)">
      <g
         id="g8334"
         transform="matrix(1.0919797,0,0,1.0919797,-193.75832,-212.15128)">
        <path
           id="circle2164"
           style="color:#000000;fill:#711ecd;fill-opacity:1;stroke-width:3.77953;-inkscape-stroke:none"
           d="m 635.4707,535.56445 c -13.42477,0 -26.12554,3.35283 -37.74218,9.25586 11.23266,6.94109 21.29779,16.16922 29.85351,26.90625 2.61079,-0.4521 5.24292,-0.68554 7.88867,-0.68554 18.13202,0 35.64429,10.66463 49.75977,31.34375 14.11548,20.67911 23.59375,50.78122 23.59375,84.35937 0,33.57815 -9.47827,63.68225 -23.59375,84.36133 -14.11548,20.67912 -31.62775,31.34961 -49.75977,31.34961 -2.64575,0 -5.27788,-0.23318 -7.88867,-0.68555 -8.5542,10.73512 -18.6174,19.96168 -29.84765,26.90235 11.61509,5.90121 24.31375,9.2539 37.73632,9.2539 32.17478,0 60.2065,-19.20592 79.0586,-46.82422 18.85213,-27.61829 29.76367,-64.23622 29.76367,-104.35742 0,-40.12116 -10.91154,-76.73913 -29.76367,-104.35742 -18.8521,-27.61826 -46.88382,-46.82227 -79.0586,-46.82227 z M 560.5,576.72852 c -1.40559,1.84442 -2.77223,3.7279 -4.08984,5.6582 -18.85214,27.61829 -29.76368,64.23626 -29.76368,104.35742 0,40.1212 10.91154,76.73913 29.76368,104.35742 1.31768,1.93041 2.68417,3.81564 4.08984,5.66016 10.38444,-2.46968 20.48773,-8.96523 29.66406,-19.60938 -1.51834,-1.91193 -3.00541,-3.92311 -4.45508,-6.04687 -14.11547,-20.67908 -23.59375,-50.78318 -23.59375,-84.36133 0,-33.57815 9.47828,-63.68026 23.59375,-84.35937 1.44858,-2.12217 2.93402,-4.13441 4.45118,-6.04493 C 580.98478,585.69693 570.88309,579.19939 560.5,576.72852 Z"
           transform="scale(0.26458333)" />
        <path
           id="path2038"
           style="color:#000000;fill:#9a60e8;fill-opacity:1;stroke-width:3.77953;-inkscape-stroke:none"
           d="m 550.76367,535.56445 c -32.17481,0 -60.20845,19.20401 -79.06055,46.82227 -18.85213,27.61829 -29.77148,64.23626 -29.77148,104.35742 0,40.1212 10.91935,76.73913 29.77148,104.35742 18.8521,27.6183 46.88574,46.82422 79.06055,46.82422 32.17478,0 60.20064,-19.20592 79.05274,-46.82422 3.02157,-4.42659 5.8358,-9.08676 8.4375,-13.95312 h -42.18946 c -13.26527,16.70731 -29.02962,25.30664 -45.30078,25.30664 -18.13205,0 -35.64624,-10.67049 -49.76172,-31.34961 -14.11547,-20.67908 -23.59375,-50.78318 -23.59375,-84.36133 0,-33.57815 9.47828,-63.68026 23.59375,-84.35937 14.11548,-20.67912 31.62967,-31.34375 49.76172,-31.34375 16.27116,0 32.03551,8.59274 45.30078,25.29882 h 42.18946 c -2.60167,-4.86629 -5.41597,-9.52659 -8.4375,-13.95312 -18.8521,-27.61826 -46.87796,-46.82227 -79.05274,-46.82227 z"
           transform="scale(0.26458333)" />
      </g>
    </g>
  </g>
</svg>
